<svg width="21" height="19" viewBox="0 0 21 19" fill="none" xmlns="http://www.w3.org/2000/svg">
<path d="M12.4251 2.09766C10.7536 2.09766 9.11956 2.59333 7.72973 3.52201C6.33989 4.45068 5.25664 5.77064 4.61697 7.31497C3.97729 8.8593 3.80993 10.5586 4.13603 12.1981C4.46213 13.8375 5.26706 15.3435 6.44902 16.5254C7.63098 17.7074 9.13689 18.5124 10.7763 18.8385C12.4157 19.1646 14.1151 18.9972 15.6594 18.3575C17.2037 17.7178 18.5236 16.6346 19.4523 15.2447C20.3809 13.8549 20.8766 12.2208 20.8766 10.5493C20.874 8.30856 19.9827 6.1604 18.3983 4.57599C16.8139 2.99158 14.6658 2.1003 12.4251 2.09766V2.09766ZM12.4251 17.4642C11.0575 17.4642 9.72057 17.0586 8.58343 16.2988C7.44629 15.539 6.56 14.459 6.03663 13.1955C5.51326 11.9319 5.37633 10.5416 5.64314 9.20022C5.90995 7.85885 6.56852 6.62672 7.53558 5.65965C8.50264 4.69258 9.73475 4.03399 11.0761 3.76718C12.4174 3.50036 13.8078 3.6373 15.0713 4.16068C16.3348 4.68405 17.4148 5.57036 18.1746 6.70752C18.9344 7.84467 19.34 9.18161 19.34 10.5493C19.3377 12.3825 18.6085 14.1401 17.3122 15.4364C16.0159 16.7327 14.2584 17.462 12.4251 17.4642V17.4642Z" fill="#7B94B5"/>
<ellipse cx="9.60813" cy="9.61019" rx="7.51243" ry="7.51253" fill="#EEF7FE"/>
<path d="M9.60769 16.4011C8.26429 16.4011 6.95106 16.0027 5.83406 15.2563C4.71697 14.5099 3.84631 13.4489 3.33217 12.2077C2.81803 10.9664 2.68351 9.60058 2.94562 8.28286C3.20772 6.96515 3.85468 5.75475 4.80469 4.80473C5.75469 3.85472 6.96507 3.20775 8.28277 2.94564C9.60046 2.68353 10.9663 2.81805 12.2075 3.3322C13.4488 3.84634 14.5097 4.71702 15.2561 5.83412C16.0025 6.95122 16.4009 8.26458 16.4009 9.60811C16.3986 11.409 15.6822 13.1355 14.4088 14.409C13.1353 15.6825 11.4087 16.3989 9.60769 16.4011ZM18.466 9.60811V9.60782C18.4632 7.25943 17.5291 5.00802 15.8686 3.34746C14.208 1.68689 11.9566 0.752771 9.60829 0.75L9.60799 0.999596V0.75C7.85605 0.75 6.14345 1.26952 4.68676 2.24286C3.23007 3.2162 2.09472 4.59965 1.42428 6.21826C0.753838 7.83687 0.57842 9.61794 0.920208 11.3362C1.26199 13.0545 2.10564 14.6329 3.34445 15.8717C4.58326 17.1106 6.1616 17.9542 7.87989 18.296C9.59817 18.6378 11.3792 18.4624 12.9978 17.7919C14.6164 17.1215 15.9998 15.9861 16.9731 14.5294C17.9465 13.0727 18.466 11.3601 18.466 9.60811Z" fill="#7B94B5" stroke="#EDF6FE" stroke-width="0.5"/>
<path d="M13.5211 8.82684H10.3909V5.69662C10.3909 5.48907 10.3085 5.29003 10.1617 5.14327C10.0149 4.99651 9.8159 4.91406 9.60835 4.91406C9.40081 4.91406 9.20177 4.99651 9.05501 5.14327C8.90826 5.29003 8.82581 5.48907 8.82581 5.69662V8.82684H5.69563C5.48809 8.82684 5.28904 8.90929 5.14229 9.05605C4.99553 9.2028 4.91309 9.40185 4.91309 9.6094C4.91309 9.81694 4.99553 10.016 5.14229 10.1627C5.28904 10.3095 5.48809 10.392 5.69563 10.392H8.82581V13.5222C8.82581 13.7297 8.90826 13.9288 9.05501 14.0755C9.20177 14.2223 9.40081 14.3047 9.60835 14.3047C9.8159 14.3047 10.0149 14.2223 10.1617 14.0755C10.3085 13.9288 10.3909 13.7297 10.3909 13.5222V10.392H13.5211C13.7286 10.392 13.9277 10.3095 14.0744 10.1627C14.2212 10.016 14.3036 9.81694 14.3036 9.6094C14.3036 9.40185 14.2212 9.2028 14.0744 9.05605C13.9277 8.90929 13.7286 8.82684 13.5211 8.82684Z" fill="#7B94B5"/>
</svg>
