<svg width="34" height="28" viewBox="0 0 34 28" fill="none" xmlns="http://www.w3.org/2000/svg">
<g filter="url(#filter0_dd_232:3299)">
<path d="M24.6858 6.21282C24.5495 6.07655 24.3646 6 24.1719 6C23.9791 6 23.7943 6.07655 23.658 6.21282L21.3509 8.51992C19.9645 7.84254 18.446 7.4785 16.9031 7.45359C10.9966 7.45359 6.34965 13.2984 6.15485 13.547C6.05452 13.6749 6 13.8328 6 13.9955C6 14.1581 6.05452 14.316 6.15485 14.4439C7.56087 16.1432 9.2363 17.6 11.1143 18.7565L9.1205 20.7503C9.05107 20.8173 8.9957 20.8976 8.9576 20.9862C8.91951 21.0749 8.89946 21.1703 8.89862 21.2668C8.89778 21.3633 8.91617 21.459 8.95272 21.5484C8.98927 21.6377 9.04324 21.7189 9.11149 21.7871C9.17973 21.8554 9.26089 21.9093 9.35022 21.9459C9.43955 21.9824 9.53527 22.0008 9.63178 22C9.72829 21.9991 9.82367 21.9791 9.91236 21.941C10.001 21.9029 10.0812 21.8475 10.1483 21.7781L24.6858 7.24062C24.822 7.10431 24.8986 6.91946 24.8986 6.72672C24.8986 6.53398 24.822 6.34913 24.6858 6.21282ZM13.2688 13.9955C13.2699 13.0319 13.6532 12.1082 14.3345 11.4268C15.0158 10.7455 15.9396 10.3622 16.9031 10.3611C17.6118 10.3661 18.3028 10.5828 18.8875 10.9833L13.891 15.9798C13.4905 15.3951 13.2738 14.7041 13.2688 13.9955Z" fill="#97AAC3"/>
<path d="M27.6514 13.547C26.5639 12.2293 25.3145 11.0541 23.9327 10.0493L20.4866 13.4954C20.5154 13.6607 20.5324 13.8278 20.5375 13.9955C20.5363 14.9591 20.153 15.8828 19.4717 16.5641C18.7904 17.2455 17.8666 17.6287 16.9031 17.6299C16.7354 17.6248 16.5683 17.6078 16.403 17.579L13.9316 20.0504C14.8913 20.3643 15.8935 20.5285 16.9031 20.5374C22.8097 20.5374 27.4566 14.6926 27.6514 14.444C27.7517 14.316 27.8062 14.1581 27.8062 13.9955C27.8062 13.8329 27.7517 13.675 27.6514 13.547Z" fill="#97AAC3"/>
</g>
<defs>
<filter id="filter0_dd_232:3299" x="0" y="0" width="33.8062" height="28" filterUnits="userSpaceOnUse" color-interpolation-filters="sRGB">
<feFlood flood-opacity="0" result="BackgroundImageFix"/>
<feColorMatrix in="SourceAlpha" type="matrix" values="0 0 0 0 0 0 0 0 0 0 0 0 0 0 0 0 0 0 127 0" result="hardAlpha"/>
<feOffset dx="1" dy="1"/>
<feGaussianBlur stdDeviation="2.5"/>
<feColorMatrix type="matrix" values="0 0 0 0 0 0 0 0 0 0 0 0 0 0 0 0 0 0 0.18 0"/>
<feBlend mode="normal" in2="BackgroundImageFix" result="effect1_dropShadow_232:3299"/>
<feColorMatrix in="SourceAlpha" type="matrix" values="0 0 0 0 0 0 0 0 0 0 0 0 0 0 0 0 0 0 127 0" result="hardAlpha"/>
<feOffset dx="-1" dy="-1"/>
<feGaussianBlur stdDeviation="2.5"/>
<feColorMatrix type="matrix" values="0 0 0 0 1 0 0 0 0 1 0 0 0 0 1 0 0 0 0.7 0"/>
<feBlend mode="normal" in2="effect1_dropShadow_232:3299" result="effect2_dropShadow_232:3299"/>
<feBlend mode="normal" in="SourceGraphic" in2="effect2_dropShadow_232:3299" result="shape"/>
</filter>
</defs>
</svg>
